<?xml version="1.0" encoding="UTF-8"?>
<svg id="Layer_2" data-name="Layer 2" xmlns="http://www.w3.org/2000/svg" viewBox="0 0 1016.09 201.31">
  <g id="Layer_1-2" data-name="Layer 1">
    <g>
      <path d="M300.96,57.67h62.28c9.06,0,17.31,2.17,24.75,6.49,7.44,4.33,13.32,10.22,17.65,17.65,4.33,7.44,6.49,15.42,6.49,23.94,0,6.22-1.25,12.17-3.75,17.85-2.5,5.68-5.98,10.65-10.45,14.91-4.46,4.26-9.53,7.41-15.22,9.44l31.45,51.73h-29.21l-29.42-48.28h-27.18v48.28h-27.39V57.67ZM362.63,127.66c6.63,0,12.17-2.16,16.64-6.49,4.46-4.33,6.69-9.8,6.69-16.43s-2.16-11.7-6.49-16.03c-4.33-4.33-9.74-6.49-16.23-6.49h-34.9v45.44h34.28Z"/>
      <path d="M466.1,201.31c-10.41,0-19.75-2.6-28-7.81-8.25-5.21-12.37-13.83-12.37-25.86,0-7.58,1.72-13.83,5.17-18.77,3.45-4.94,8.45-8.59,15.01-10.96,6.56-2.36,14.3-3.55,23.23-3.55h31.65v-5.88c0-5.41-2.17-9.4-6.49-11.97-4.33-2.57-10.01-3.86-17.04-3.86-5.95,0-11.05.98-15.32,2.94-4.26,1.96-7.07,5.31-8.42,10.04l-25.16.2c.13-7.16,2.37-13.42,6.7-18.77,4.33-5.34,10.14-9.46,17.45-12.37,7.3-2.91,15.35-4.36,24.14-4.36s16.74,1.46,24.24,4.36c7.51,2.91,13.53,7,18.06,12.27,4.53,5.28,6.8,11.43,6.8,18.46v74.25h-24.95v-13.39c-2.84,3.79-7.3,7.24-13.39,10.35-6.09,3.11-13.19,4.67-21.3,4.67M468.33,179.8c5.28,0,10.41-1.22,15.42-3.65,5-2.43,9.09-5.68,12.27-9.74,3.18-4.06,4.77-8.52,4.77-13.39h-26.78c-5.14,0-9.4.68-12.78,2.03-3.38,1.35-5.85,3.18-7.4,5.48-1.56,2.3-2.13,4.94-1.73,7.91.41,4.06,2.16,6.97,5.28,8.72,3.11,1.76,6.76,2.64,10.95,2.64"/>
      <polygon points="547.25 57.67 573.62 57.67 573.62 140.24 617.65 92.16 648.89 92.16 603.04 141.25 650.31 199.68 619.67 199.68 587.42 158.29 573.62 173.31 573.62 199.68 547.25 199.68 547.25 57.67"/>
      <polygon points="706.3 83.03 661.67 83.03 661.67 57.67 776.5 57.67 776.5 83.03 733.49 83.03 733.49 199.68 706.3 199.68 706.3 83.03"/>
      <polygon points="794.75 57.67 822.14 57.67 822.14 174.32 889.7 174.32 889.7 199.68 794.75 199.68 794.75 57.67"/>
      <polygon points="878.54 57.67 908.57 57.67 947.11 180.61 986.47 57.67 1016.09 57.67 968.82 199.68 925.2 199.68 878.54 57.67"/>
      <path d="M121.75,0L0,60.87v138.81h45.66v-117.78l76.09-38.05,76.1,38.05v117.78h45.66V60.87L121.75,0ZM76.1,100.71v98.97h91.3v-98.97l-45.66-22.84-45.64,22.84ZM93.31,174.92l.96.1.19.46-1.15-.56Z"/>
    </g>
  </g>
</svg>