<?xml version="1.0" encoding="UTF-8"?>
<svg id="Layer_2" data-name="Layer 2" xmlns="http://www.w3.org/2000/svg" viewBox="0 0 800.71 200.19">
  <defs>
    <style>
      .cls-1 {
        fill: #36f;
      }

      .cls-2 {
        fill: #fff;
      }
    </style>
  </defs>
  <g id="Layer_1-2" data-name="Layer 1">
    <g>
      <path class="cls-2" d="M250.72,200.19c-10.41,0-19.75-2.6-28-7.81-8.25-5.21-12.37-13.83-12.37-25.86,0-7.58,1.72-13.83,5.17-18.77,3.45-4.94,8.45-8.59,15.01-10.96,6.56-2.36,14.3-3.55,23.23-3.55h31.65v-5.88c0-5.41-2.17-9.4-6.49-11.97-4.33-2.57-10.01-3.86-17.04-3.86-5.95,0-11.05.98-15.32,2.94-4.26,1.96-7.07,5.31-8.42,10.04l-25.16.2c.13-7.16,2.37-13.42,6.7-18.77,4.33-5.34,10.14-9.46,17.45-12.37,7.3-2.91,15.35-4.36,24.14-4.36s16.74,1.46,24.24,4.36c7.51,2.91,13.53,7,18.06,12.27,4.53,5.28,6.8,11.43,6.8,18.46v74.25h-24.95v-13.39c-2.84,3.79-7.3,7.24-13.39,10.35-6.09,3.11-13.19,4.67-21.3,4.67M252.95,178.68c5.28,0,10.41-1.22,15.42-3.65,5-2.43,9.09-5.68,12.27-9.74,3.18-4.06,4.77-8.52,4.77-13.39h-26.78c-5.14,0-9.4.68-12.78,2.03-3.38,1.35-5.85,3.18-7.4,5.48-1.56,2.3-2.13,4.94-1.73,7.91.41,4.06,2.16,6.97,5.28,8.72,3.11,1.76,6.76,2.64,10.95,2.64"/>
      <polygon class="cls-2" points="331.87 56.55 358.25 56.55 358.25 139.12 402.27 91.04 433.51 91.04 387.66 140.14 434.93 198.56 404.3 198.56 372.04 157.18 358.25 172.19 358.25 198.56 331.87 198.56 331.87 56.55"/>
      <polygon class="cls-1" points="490.93 81.91 446.29 81.91 446.29 56.55 561.12 56.55 561.12 81.91 518.11 81.91 518.11 198.56 490.93 198.56 490.93 81.91"/>
      <polygon class="cls-1" points="579.38 56.55 606.77 56.55 606.77 173.21 674.32 173.21 674.32 198.56 579.38 198.56 579.38 56.55"/>
      <polygon class="cls-1" points="663.16 56.55 693.19 56.55 731.74 179.49 771.09 56.55 800.71 56.55 753.44 198.56 709.82 198.56 663.16 56.55"/>
      <g>
        <polygon class="cls-1" points="136.49 136.49 136.49 82.11 99.26 63.5 62.04 82.11 62.04 198.53 117.43 198.53 76.07 136.49 136.49 136.49"/>
        <polygon class="cls-1" points="99.26 0 0 49.63 0 198.53 37.22 198.53 37.22 66.78 99.26 35.76 161.3 66.78 161.3 161.3 122.45 161.3 147.27 198.53 198.53 198.53 198.53 49.63 99.26 0"/>
      </g>
    </g>
  </g>
</svg>