<?xml version="1.0" encoding="UTF-8"?>
<svg id="Layer_1" data-name="Layer 1" xmlns="http://www.w3.org/2000/svg" viewBox="0 0 1920 1080">
  <defs>
    <style>
      .cls-1 {
        fill: #36f;
      }
    </style>
  </defs>
  <path d="M868.35,601.31c-6.38,0-12.1-1.59-17.15-4.79-5.05-3.19-7.58-8.47-7.58-15.84,0-4.64,1.06-8.47,3.17-11.49,2.11-3.02,5.18-5.26,9.2-6.71,4.02-1.45,8.76-2.17,14.23-2.17h19.39v-3.6c0-3.31-1.33-5.76-3.98-7.33-2.65-1.57-6.13-2.36-10.44-2.36-3.65,0-6.77.6-9.38,1.8-2.61,1.2-4.33,3.25-5.16,6.15l-15.41.12c.08-4.39,1.45-8.22,4.1-11.49,2.65-3.27,6.21-5.8,10.69-7.58,4.47-1.78,9.4-2.67,14.79-2.67s10.25.89,14.85,2.67c4.6,1.78,8.28,4.29,11.06,7.52,2.77,3.23,4.16,7,4.16,11.31v45.48h-15.28v-8.2c-1.74,2.32-4.47,4.43-8.2,6.34-3.73,1.9-8.08,2.86-13.05,2.86M869.72,588.13c3.23,0,6.38-.74,9.44-2.24,3.06-1.49,5.57-3.48,7.52-5.96,1.95-2.48,2.92-5.22,2.92-8.2h-16.4c-3.15,0-5.76.41-7.83,1.24-2.07.83-3.58,1.95-4.53,3.36-.95,1.41-1.3,3.02-1.06,4.85.25,2.49,1.33,4.27,3.23,5.34,1.9,1.08,4.14,1.61,6.71,1.61"/>
  <polygon points="918.05 513.33 934.21 513.33 934.21 563.9 961.17 534.45 980.31 534.45 952.23 564.53 981.18 600.31 962.41 600.31 942.66 574.96 934.21 584.16 934.21 600.31 918.05 600.31 918.05 513.33"/>
  <polygon class="cls-1" points="1015.47 528.86 988.14 528.86 988.14 513.33 1058.47 513.33 1058.47 528.86 1032.12 528.86 1032.12 600.31 1015.47 600.31 1015.47 528.86"/>
  <polygon class="cls-1" points="1069.65 513.33 1086.42 513.33 1086.42 584.78 1127.8 584.78 1127.8 600.31 1069.65 600.31 1069.65 513.33"/>
  <polygon class="cls-1" points="1120.97 513.33 1139.36 513.33 1162.97 588.63 1187.07 513.33 1205.21 513.33 1176.26 600.31 1149.55 600.31 1120.97 513.33"/>
  <g>
    <polygon class="cls-1" points="798.38 562.29 798.38 528.99 775.58 517.59 752.79 528.99 752.79 600.29 786.71 600.29 761.38 562.29 798.38 562.29"/>
    <polygon class="cls-1" points="775.58 478.69 714.79 509.09 714.79 600.29 737.59 600.29 737.59 519.6 775.58 500.6 813.58 519.6 813.58 577.49 789.79 577.49 804.99 600.29 836.38 600.29 836.38 509.09 775.58 478.69"/>
  </g>
</svg>