<?xml version="1.0" encoding="UTF-8"?>
<svg id="Layer_1" data-name="Layer 1" xmlns="http://www.w3.org/2000/svg" viewBox="0 0 1920 1080">
  <defs>
    <style>
      .cls-1 {
        fill: #36f;
      }

      .cls-2 {
        fill: #fff;
      }
    </style>
  </defs>
  <rect x="-32.09" y="-18.05" width="1984.18" height="1116.1"/>
  <g>
    <path class="cls-2" d="M833.16,513.67h38.15c5.55,0,10.6,1.33,15.16,3.98,4.55,2.65,8.16,6.26,10.81,10.81,2.65,4.56,3.98,9.44,3.98,14.66,0,3.81-.77,7.45-2.3,10.93-1.53,3.48-3.67,6.52-6.4,9.13-2.73,2.61-5.84,4.54-9.32,5.78l19.26,31.68h-17.89l-18.02-29.57h-16.65v29.57h-16.78v-86.98ZM870.93,556.54c4.06,0,7.46-1.32,10.19-3.98,2.73-2.65,4.1-6.01,4.1-10.07s-1.33-7.17-3.98-9.82c-2.65-2.65-5.96-3.98-9.94-3.98h-21.37v27.83h21Z"/>
    <path class="cls-2" d="M934.31,601.65c-6.38,0-12.1-1.59-17.15-4.79-5.05-3.19-7.58-8.47-7.58-15.84,0-4.64,1.06-8.47,3.17-11.49,2.11-3.02,5.18-5.26,9.2-6.71,4.02-1.45,8.76-2.17,14.23-2.17h19.39v-3.6c0-3.31-1.33-5.76-3.98-7.33-2.65-1.57-6.13-2.36-10.44-2.36-3.65,0-6.77.6-9.38,1.8-2.61,1.2-4.33,3.25-5.16,6.15l-15.41.12c.08-4.39,1.45-8.22,4.1-11.49,2.65-3.27,6.21-5.8,10.69-7.58,4.47-1.78,9.4-2.67,14.79-2.67s10.25.89,14.85,2.67c4.6,1.78,8.28,4.29,11.06,7.52,2.77,3.23,4.16,7,4.16,11.31v45.48h-15.28v-8.2c-1.74,2.32-4.47,4.43-8.2,6.34-3.73,1.9-8.08,2.86-13.05,2.86M935.67,588.48c3.23,0,6.38-.74,9.44-2.24,3.06-1.49,5.57-3.48,7.52-5.96,1.95-2.48,2.92-5.22,2.92-8.2h-16.4c-3.15,0-5.76.41-7.83,1.24-2.07.83-3.58,1.95-4.53,3.36-.95,1.41-1.3,3.02-1.06,4.85.25,2.49,1.33,4.27,3.23,5.34,1.9,1.08,4.14,1.61,6.71,1.61"/>
    <polygon class="cls-2" points="984.01 513.67 1000.17 513.67 1000.17 564.25 1027.13 534.8 1046.27 534.8 1018.18 564.87 1047.14 600.65 1028.37 600.65 1008.62 575.3 1000.17 584.5 1000.17 600.65 984.01 600.65 984.01 513.67"/>
    <polygon class="cls-1" points="1081.43 529.2 1054.09 529.2 1054.09 513.67 1124.42 513.67 1124.42 529.2 1098.08 529.2 1098.08 600.65 1081.43 600.65 1081.43 529.2"/>
    <polygon class="cls-1" points="1135.61 513.67 1152.38 513.67 1152.38 585.12 1193.76 585.12 1193.76 600.65 1135.61 600.65 1135.61 513.67"/>
    <polygon class="cls-1" points="1186.92 513.67 1205.31 513.67 1228.92 588.97 1253.03 513.67 1271.17 513.67 1242.22 600.65 1215.5 600.65 1186.92 513.67"/>
    <path class="cls-1" d="M723.4,478.35l-74.57,37.28v85.02h27.97v-72.14l46.6-23.31,46.61,23.31v72.14h27.97v-85.02l-74.58-37.28ZM695.44,540.04v60.62h55.92v-60.62l-27.97-13.99-27.96,13.99ZM705.98,585.49l.59.06.11.28-.7-.34Z"/>
  </g>
</svg>